<?xml version="1.0" ?><svg id="Layer_3" style="enable-background:new 0 0 512 512;" version="1.1" viewBox="0 0 512 512" xml:space="preserve" xmlns="http://www.w3.org/2000/svg" xmlns:xlink="http://www.w3.org/1999/xlink"><style type="text/css">
	.st0{fill:#F2FFE9;}
	.st1{fill:#E4F4D7;}
	.st2{fill:#CADBBF;}
	.st3{fill:#F0FEFF;}
	.st4{fill:#F8FFFF;}
	.st5{fill:#DEFBFC;}
</style><path class="st0" d="M339.6,196.1l-37.3-48.6l-51.8,1.2l37.6,48.6L339.6,196.1z M295.9,154.5c2.3,0,5.8,1.7,7.5,4c1.7,2,1.2,4-1.2,4  c-2.3,0-5.8-1.7-7.5-4C293.1,156.5,293.6,154.5,295.9,154.5z M292.2,168.7c2.3,0,5.8,2,7.5,4c1.7,2,1.2,4-1.2,4  c-2.3,0-5.8-1.7-7.5-4C289.3,170.7,289.9,168.7,292.2,168.7z M287.8,182.2c2.3,0,5.8,2,7.5,4c1.7,2,1.2,4-1.2,4  c-2.6,0-6.1-1.7-7.5-4C285,184.3,285.5,182.2,287.8,182.2z"/><path class="st1" d="M287.8,201.3l-30.7,48.6l51.8-1.2l30.9-48.6L287.8,201.3z M279.7,238.6c-1.4,2-4.6,4-6.9,4s-3.2-1.7-1.7-4  c1.4-2,4.6-4,6.9-4S281.2,236.6,279.7,238.6z M319.4,214.9c-2.3,0-3.2-1.7-1.7-4c1.4-2,4.6-4,6.9-4c2.3,0,3.2,1.7,1.7,4  C324.9,212.9,321.7,214.9,319.4,214.9z"/><path class="st2" d="M215.8,199.3l37.6,49.2l31.2-49.2l-37.9-49.2l-10.8,17.2L215.8,199.3z M234.1,203.4c-1.4,2.3-4,2.3-5.8,0  c-1.7-2-2-5.8-0.6-8.1c1.4-2,4-2,5.8,0S235.5,201,234.1,203.4z M265.9,195.6c1.4-2.3,4-2.3,5.8,0c1.7,2,2,5.8,0.6,8.1  c-1.4,2.3-3.8,2.3-5.8,0C264.7,201.6,264.4,197.9,265.9,195.6z M254.9,230.8c-1.2,2.3-4,2.3-5.8,0c-1.7-2-2-5.8-0.6-8.1  c1.4-2.3,4-2.3,5.8,0C256,224.8,256.3,228.5,254.9,230.8z M253.1,203.7c-1.4,2-4,2-5.8,0c-1.7-2-2-5.8-0.6-8.1s4-2.3,5.8,0  C254.3,197.6,254.6,201.3,253.1,203.7z M250.8,168.1c1.7,2,2,5.8,0.6,8.1s-4,2.3-5.8,0c-1.7-2-2-5.8-0.6-8.1  C246.5,165.8,249.1,165.8,250.8,168.1z"/><path class="st3" d="M173.6,274.2l43.1,28.6l57.6-21.1l-43.1-28.6L173.6,274.2z M199.1,278c-2.6,1.2-6.4,0.9-8.4-0.6  c-2-1.2-1.4-2.9,1.2-4s6.4-0.9,8.4,0.6C202.2,275.1,201.7,277.1,199.1,278z M210.9,286.1c-2.6,1.2-6.4,0.9-8.4-0.6  c-2-1.2-1.4-3.2,1.2-4c2.6-1.2,6.4-0.9,8.4,0.6C214.1,283.2,213.5,285.2,210.9,286.1z M223.3,294.2c-2.6,1.2-6.4,0.9-8.4-0.6  c-2-1.2-1.4-3.2,1.2-4c2.6-1.2,6.4-0.9,8.4,0.6C226.5,291.3,226,293.3,223.3,294.2z M248.2,277.7c2.6-1.2,6.4-0.9,8.4,0.6  c2,1.2,1.4,3.2-1.2,4c-2.6,1.2-6.4,0.9-8.4-0.6C245,280.3,245.6,278.6,248.2,277.7z M235.8,269.6c2.6-1.2,6.4-0.9,8.4,0.6  c2,1.2,1.4,3.2-1.2,4c-2.6,1.2-6.4,0.9-8.4-0.6C232.6,272.5,233.2,270.5,235.8,269.6z M231.2,266.1c-2.6,1.2-6.4,0.9-8.4-0.6  c-2-1.2-1.4-3.2,1.2-4c2.6-1.2,6.4-0.9,8.4,0.6C234.3,263.2,233.8,265.3,231.2,266.1z"/><path class="st4" d="M218.1,364.5l58.4-21.4v-58.1l-58.4,21.4V364.5z M263.6,297.7c2.9-0.9,4.9,0.6,4.9,3.2s-2.3,5.8-4.9,6.7  c-2.9,1.2-4.9-0.6-4.9-3.2C258.6,301.7,260.9,298.5,263.6,297.7z M263.6,330.3c2.6-1.2,4.9,0.3,4.9,3.2c0,2.6-2,5.8-4.9,6.7  c-2.9,0.9-4.9-0.6-4.9-3.2S260.9,331.2,263.6,330.3z M231.2,309.8c2.9-0.9,4.9,0.6,4.9,3.2s-2.3,5.8-4.9,6.7  c-2.6,0.9-4.9-0.6-4.9-3.2S228.6,310.7,231.2,309.8z M231.2,342.2c2.6-1.2,4.9,0.3,4.9,3.2c0,2.6-2.3,5.8-4.9,6.7  c-2.9,0.9-4.9-0.6-4.9-3.2S228.6,343.1,231.2,342.2z"/><path class="st5" d="M171,335l43.1,28.6V306L171,277.4V335z M192.7,315.6c2,1.4,3.5,4.6,3.8,7.2c0,2.6-1.7,3.8-3.8,2.3  c-2-1.2-3.8-4.6-3.8-7.2S190.7,314.1,192.7,315.6z"/><path d="M279.7,280.6l-47.1-31.2c-0.6-0.3-1.2-0.3-1.7-0.3l-62.2,22.8c0,0,0,0-0.3,0c-0.6,0.3-1.2,0.9-1.2,1.7v62.2  c0,0.6,0.3,1.2,0.9,1.7l46.9,31.2c0,0,0,0,0.3,0c0.3,0.3,0.6,0.3,1.2,0.3c0.3,0,0.6,0,0.6,0l62.2-22.6c0.9-0.3,1.4-1.2,1.4-1.7  v-62.5c0-0.6-0.1-0.8-0.2-1.1C280.3,281,279.7,280.6,279.7,280.6z M214.1,363.6L171,335v-57.6l43.1,28.6V363.6z M216.7,302.9  l-43.1-28.6l57.6-21.1l43.1,28.6L216.7,302.9z M276.6,343.1l-58.4,21.4v-58.1l58.4-21.4V343.1z"/><path d="M231.2,319.6c2.6-0.9,4.9-4,4.9-6.7s-2-4-4.9-3.2c-2.6,0.9-4.9,4-4.9,6.7S228.6,320.5,231.2,319.6z"/><path d="M263.6,307.5c2.6-0.9,4.9-4,4.9-6.7s-2-4-4.9-3.2c-2.6,0.9-4.9,4-4.9,6.7C258.6,306.9,260.7,308.6,263.6,307.5z"/><path d="M231.2,352c2.6-0.9,4.9-4,4.9-6.7c0-2.9-2.3-4.3-4.9-3.2c-2.6,0.9-4.9,4-4.9,6.7S228.3,352.9,231.2,352z"/><path d="M263.6,340.2c2.9-0.9,4.9-4,4.9-6.7c0-2.9-2.3-4.3-4.9-3.2c-2.6,0.9-4.9,4-4.9,6.7S260.7,341,263.6,340.2z"/><path d="M192.7,325.1c2,1.4,3.8,0.3,3.8-2.3c-0.3-2.6-1.7-5.8-3.8-7.2c-2-1.4-3.8-0.3-3.8,2.3S190.7,324,192.7,325.1z"/><path d="M200.2,273.9c-2-1.4-5.8-1.7-8.4-0.6s-3.2,2.9-1.2,4c2,1.4,5.8,1.7,8.4,0.6C201.7,277.1,202.2,275.1,200.2,273.9z"/><path d="M223.9,261.5c-2.6,0.9-3.2,2.9-1.2,4c2,1.4,5.8,1.7,8.4,0.6c2.6-0.9,3.2-2.9,1.2-4C230.3,260.6,226.5,260.3,223.9,261.5z"/><path d="M212.1,282c-2-1.4-5.8-1.7-8.4-0.6c-2.6,0.9-3.2,2.9-1.2,4c2,1.4,5.8,1.7,8.4,0.6C213.5,285.2,214.1,283.2,212.1,282z"/><path d="M234.6,273.6c2,1.4,5.8,1.7,8.4,0.6c2.6-0.9,3.2-2.9,1.2-4c-2-1.4-5.8-1.7-8.4-0.6C233.2,270.5,232.6,272.5,234.6,273.6z"/><path d="M224.5,290.1c-2-1.4-5.8-1.7-8.4-0.6c-2.6,0.9-3.2,2.9-1.2,4c2,1.4,5.8,1.7,8.4,0.6C226,293.3,226.5,291.3,224.5,290.1z"/><path d="M247.1,281.7c2,1.4,5.8,1.7,8.4,0.6c2.6-0.9,3.2-2.9,1.2-4c-2-1.4-5.8-1.7-8.4-0.6C245.6,278.6,245,280.3,247.1,281.7z"/><path d="M344.9,197l-40.3-52.6c-0.3-0.6-0.9-0.9-1.4-0.9l-56.4,1.2h-0.3c0,0-0.3,0-0.3,0.3c0,0-0.3,0-0.3,0.3l-0.3,0.3l-33.8,52.9  c-0.6,0.6-0.3,1.4,0,2.3l40.5,52.6c0.3,0.6,0.9,0.9,1.4,0.9c0,0,0,0,0.3,0l56.1-1.2c0.6,0,1.2-0.3,1.7-0.9l33.3-53.2  c0,0,0.3-0.7,0.1-1.2C345.3,197.6,344.9,197,344.9,197z M251.4,148.7l50.9-1.1l37.3,48.6l-51.5,1.2l0,0l-37.6-48.6L251.4,148.7z   M253.4,248.5l-37.6-49.2l20.1-31.9l10.8-17.2l0.2,0.2l37.7,48.9L253.4,248.5z M309,248.8l-51.8,1.2l30.7-48.6l52.1-1.2L309,248.8z"/><path d="M272.2,203.7c1.4-2.3,1.2-6.1-0.6-8.1c-1.7-2.3-4.3-2.3-5.8,0s-1.2,6.1,0.6,8.1C268.5,206,270.8,206,272.2,203.7z"/><path d="M245.6,176.2c1.7,2.3,4.3,2.3,5.8,0s1.2-6.1-0.6-8.1c-1.7-2.3-4.3-2.3-5.8,0C243.6,170.4,243.9,174.1,245.6,176.2z"/><path d="M246.8,195.6c-1.4,2.3-1.2,6.1,0.6,8.1c1.7,2,4.3,2,5.8,0c1.4-2.3,1.2-6.1-0.6-8.1C250.8,193.2,248.2,193.2,246.8,195.6z"/><path d="M248.5,222.7c-1.4,2.3-1.2,6.1,0.6,8.1c1.7,2.3,4.6,2.3,5.8,0c1.4-2.3,1.2-6.1-0.6-8.1C252.6,220.4,250,220.4,248.5,222.7z"/><path d="M227.7,195.3c-1.4,2.3-1.2,6.1,0.6,8.1c1.7,2.3,4.3,2.3,5.8,0c1.4-2.3,1.2-6.1-0.6-8.1S229.1,193.2,227.7,195.3z"/><path d="M324.6,206.8c-2.3,0-5.5,2-6.9,4c-1.4,2.3-0.6,4,1.7,4s5.5-2,6.9-4C327.8,208.6,326.9,206.8,324.6,206.8z"/><path d="M278,234.6c-2.3,0-5.5,2-6.9,4c-1.4,2.3-0.6,4,1.7,4s5.5-2,6.9-4C281.2,236.6,280.3,234.6,278,234.6z"/><path d="M302.3,162.6c2.3,0,2.9-2,1.2-4c-1.7-2.3-5.2-4-7.5-4s-2.9,2-1.2,4C296.5,160.8,300,162.6,302.3,162.6z"/><path d="M298.5,176.8c2.3,0,2.9-2,1.2-4c-1.7-2-5.2-4-7.5-4s-2.9,2-1.2,4C292.8,175,296.2,176.8,298.5,176.8z"/><path d="M294.2,190.3c2.3,0,2.9-2,1.2-4c-1.7-2-5.2-4-7.5-4s-2.9,2-1.2,4C288.1,188.6,291.6,190.3,294.2,190.3z"/></svg>